<svg width="459" height="566" viewBox="0 0 459 566" fill="none" xmlns="http://www.w3.org/2000/svg">
<path d="M0 329H54.1856L62.3223 342.934M112.887 429.521H372.848L438 342.934H62.3223M112.887 429.521L62.3223 342.934M112.887 429.521L89.6642 444.45C87.514 447.768 84.5037 455.597 89.6642 460.374C94.8247 465.152 107.296 468.115 112.887 469H438" stroke="black" stroke-width="20"/>
<path d="M193.478 531.239C193.478 550.149 178.149 565.478 159.239 565.478C140.329 565.478 125 550.149 125 531.239C125 512.329 140.329 497 159.239 497C178.149 497 193.478 512.329 193.478 531.239Z" fill="black"/>
<circle cx="322.239" cy="531.239" r="34.2389" fill="black"/>
<path d="M407.631 306.664H73.0873L64.3267 253.044L46.5137 144.02L159.452 210.405L256.256 25L325.537 210.405L438 144.02L417.643 253.044L407.631 306.664Z" fill="url(#paint0_linear_244_19)"/>
<path d="M64.3267 253.044L417.643 253.044M417.643 253.044L407.631 306.664H73.0873L46.5137 144.02L159.452 210.405L256.256 25L325.537 210.405L438 144.02L417.643 253.044Z" stroke="black" stroke-width="20"/>
<defs>
<linearGradient id="paint0_linear_244_19" x1="438" y1="165.832" x2="46.5137" y2="165.832" gradientUnits="userSpaceOnUse">
<stop stop-color="#FFEA03"/>
<stop offset="0.741173" stop-color="#E1B503"/>
</linearGradient>
</defs>
</svg>
